<svg width="311" height="200" viewBox="0 0 311 200" fill="none" xmlns="http://www.w3.org/2000/svg">
<line x1="49.75" y1="174" x2="49.75" y2="8" stroke="#EFF2F9" stroke-width="0.5"/>
<line x1="98.3501" y1="174" x2="98.3501" y2="8" stroke="#EFF2F9" stroke-width="0.5"/>
<line x1="146.95" y1="174" x2="146.95" y2="8" stroke="#EFF2F9" stroke-width="0.5"/>
<line x1="195.55" y1="174" x2="195.55" y2="8" stroke="#EFF2F9" stroke-width="0.5"/>
<line x1="244.15" y1="174" x2="244.15" y2="8" stroke="#EFF2F9" stroke-width="0.5"/>
<line x1="292.75" y1="174" x2="292.75" y2="8" stroke="#EFF2F9" stroke-width="0.5"/>
<path d="M43.3978 195.31V196H38.8578V195.38L41.3278 192.66C41.6611 192.287 41.9011 191.953 42.0478 191.66C42.2011 191.36 42.2778 191.06 42.2778 190.76C42.2778 190.373 42.1645 190.077 41.9378 189.87C41.7111 189.663 41.3911 189.56 40.9778 189.56C40.2978 189.56 39.6311 189.83 38.9778 190.37L38.6678 189.74C38.9478 189.473 39.2978 189.263 39.7178 189.11C40.1445 188.95 40.5711 188.87 40.9978 188.87C41.6445 188.87 42.1545 189.037 42.5278 189.37C42.9078 189.703 43.0978 190.153 43.0978 190.72C43.0978 191.127 43.0045 191.517 42.8178 191.89C42.6378 192.263 42.3378 192.68 41.9178 193.14L39.9178 195.31H43.3978ZM47.0039 196.08C46.1972 196.08 45.5839 195.773 45.1639 195.16C44.7439 194.547 44.5339 193.653 44.5339 192.48C44.5339 191.3 44.7439 190.403 45.1639 189.79C45.5839 189.177 46.1972 188.87 47.0039 188.87C47.8106 188.87 48.4239 189.177 48.8439 189.79C49.2639 190.397 49.4739 191.29 49.4739 192.47C49.4739 193.65 49.2639 194.547 48.8439 195.16C48.4239 195.773 47.8106 196.08 47.0039 196.08ZM47.0039 195.39C47.5639 195.39 47.9772 195.153 48.2439 194.68C48.5106 194.207 48.6439 193.47 48.6439 192.47C48.6439 191.463 48.5106 190.73 48.2439 190.27C47.9839 189.803 47.5706 189.57 47.0039 189.57C46.4439 189.57 46.0306 189.803 45.7639 190.27C45.4972 190.737 45.3639 191.47 45.3639 192.47C45.3639 193.47 45.4972 194.207 45.7639 194.68C46.0306 195.153 46.4439 195.39 47.0039 195.39ZM55.39 195.31V196H50.85V195.38L53.32 192.66C53.6533 192.287 53.8933 191.953 54.04 191.66C54.1933 191.36 54.27 191.06 54.27 190.76C54.27 190.373 54.1567 190.077 53.93 189.87C53.7033 189.663 53.3833 189.56 52.97 189.56C52.29 189.56 51.6233 189.83 50.97 190.37L50.66 189.74C50.94 189.473 51.29 189.263 51.71 189.11C52.1367 188.95 52.5633 188.87 52.99 188.87C53.6367 188.87 54.1467 189.037 54.52 189.37C54.9 189.703 55.09 190.153 55.09 190.72C55.09 191.127 54.9967 191.517 54.81 191.89C54.63 192.263 54.33 192.68 53.91 193.14L51.91 195.31H55.39ZM61.2161 195.31V196H57.2961V195.31H58.8461V189.97L57.6061 190.75L57.2261 190.12L59.0761 188.95H59.6661V195.31H61.2161Z" fill="#425073"/>
<path d="M91.9979 195.31V196H87.4579V195.38L89.9279 192.66C90.2612 192.287 90.5012 191.953 90.6479 191.66C90.8012 191.36 90.8779 191.06 90.8779 190.76C90.8779 190.373 90.7646 190.077 90.5379 189.87C90.3112 189.663 89.9912 189.56 89.5779 189.56C88.8979 189.56 88.2312 189.83 87.5779 190.37L87.2679 189.74C87.5479 189.473 87.8979 189.263 88.3179 189.11C88.7446 188.95 89.1712 188.87 89.5979 188.87C90.2446 188.87 90.7546 189.037 91.1279 189.37C91.5079 189.703 91.6979 190.153 91.6979 190.72C91.6979 191.127 91.6046 191.517 91.4179 191.89C91.2379 192.263 90.9379 192.68 90.5179 193.14L88.5179 195.31H91.9979ZM95.604 196.08C94.7973 196.08 94.184 195.773 93.764 195.16C93.344 194.547 93.134 193.653 93.134 192.48C93.134 191.3 93.344 190.403 93.764 189.79C94.184 189.177 94.7973 188.87 95.604 188.87C96.4107 188.87 97.024 189.177 97.444 189.79C97.864 190.397 98.074 191.29 98.074 192.47C98.074 193.65 97.864 194.547 97.444 195.16C97.024 195.773 96.4107 196.08 95.604 196.08ZM95.604 195.39C96.164 195.39 96.5773 195.153 96.844 194.68C97.1107 194.207 97.244 193.47 97.244 192.47C97.244 191.463 97.1107 190.73 96.844 190.27C96.584 189.803 96.1707 189.57 95.604 189.57C95.044 189.57 94.6307 189.803 94.364 190.27C94.0973 190.737 93.964 191.47 93.964 192.47C93.964 193.47 94.0973 194.207 94.364 194.68C94.6307 195.153 95.044 195.39 95.604 195.39ZM103.99 195.31V196H99.4501V195.38L101.92 192.66C102.253 192.287 102.493 191.953 102.64 191.66C102.793 191.36 102.87 191.06 102.87 190.76C102.87 190.373 102.757 190.077 102.53 189.87C102.303 189.663 101.983 189.56 101.57 189.56C100.89 189.56 100.223 189.83 99.5701 190.37L99.2601 189.74C99.5401 189.473 99.8901 189.263 100.31 189.11C100.737 188.95 101.163 188.87 101.59 188.87C102.237 188.87 102.747 189.037 103.12 189.37C103.5 189.703 103.69 190.153 103.69 190.72C103.69 191.127 103.597 191.517 103.41 191.89C103.23 192.263 102.93 192.68 102.51 193.14L100.51 195.31H103.99ZM109.986 195.31V196H105.446V195.38L107.916 192.66C108.25 192.287 108.49 191.953 108.636 191.66C108.79 191.36 108.866 191.06 108.866 190.76C108.866 190.373 108.753 190.077 108.526 189.87C108.3 189.663 107.98 189.56 107.566 189.56C106.886 189.56 106.22 189.83 105.566 190.37L105.256 189.74C105.536 189.473 105.886 189.263 106.306 189.11C106.733 188.95 107.16 188.87 107.586 188.87C108.233 188.87 108.743 189.037 109.116 189.37C109.496 189.703 109.686 190.153 109.686 190.72C109.686 191.127 109.593 191.517 109.406 191.89C109.226 192.263 108.926 192.68 108.506 193.14L106.506 195.31H109.986Z" fill="#425073"/>
<path d="M140.598 195.31V196H136.058V195.38L138.528 192.66C138.861 192.287 139.101 191.953 139.248 191.66C139.401 191.36 139.478 191.06 139.478 190.76C139.478 190.373 139.365 190.077 139.138 189.87C138.911 189.663 138.591 189.56 138.178 189.56C137.498 189.56 136.831 189.83 136.178 190.37L135.868 189.74C136.148 189.473 136.498 189.263 136.918 189.11C137.345 188.95 137.771 188.87 138.198 188.87C138.845 188.87 139.355 189.037 139.728 189.37C140.108 189.703 140.298 190.153 140.298 190.72C140.298 191.127 140.205 191.517 140.018 191.89C139.838 192.263 139.538 192.68 139.118 193.14L137.118 195.31H140.598ZM144.204 196.08C143.397 196.08 142.784 195.773 142.364 195.16C141.944 194.547 141.734 193.653 141.734 192.48C141.734 191.3 141.944 190.403 142.364 189.79C142.784 189.177 143.397 188.87 144.204 188.87C145.011 188.87 145.624 189.177 146.044 189.79C146.464 190.397 146.674 191.29 146.674 192.47C146.674 193.65 146.464 194.547 146.044 195.16C145.624 195.773 145.011 196.08 144.204 196.08ZM144.204 195.39C144.764 195.39 145.177 195.153 145.444 194.68C145.711 194.207 145.844 193.47 145.844 192.47C145.844 191.463 145.711 190.73 145.444 190.27C145.184 189.803 144.771 189.57 144.204 189.57C143.644 189.57 143.231 189.803 142.964 190.27C142.697 190.737 142.564 191.47 142.564 192.47C142.564 193.47 142.697 194.207 142.964 194.68C143.231 195.153 143.644 195.39 144.204 195.39ZM152.59 195.31V196H148.05V195.38L150.52 192.66C150.854 192.287 151.094 191.953 151.24 191.66C151.394 191.36 151.47 191.06 151.47 190.76C151.47 190.373 151.357 190.077 151.13 189.87C150.904 189.663 150.584 189.56 150.17 189.56C149.49 189.56 148.824 189.83 148.17 190.37L147.86 189.74C148.14 189.473 148.49 189.263 148.91 189.11C149.337 188.95 149.764 188.87 150.19 188.87C150.837 188.87 151.347 189.037 151.72 189.37C152.1 189.703 152.29 190.153 152.29 190.72C152.29 191.127 152.197 191.517 152.01 191.89C151.83 192.263 151.53 192.68 151.11 193.14L149.11 195.31H152.59ZM157.166 192.38C157.58 192.5 157.896 192.707 158.116 193C158.336 193.287 158.446 193.65 158.446 194.09C158.446 194.703 158.236 195.187 157.816 195.54C157.403 195.893 156.84 196.07 156.126 196.07C155.673 196.07 155.236 195.993 154.816 195.84C154.396 195.687 154.043 195.473 153.756 195.2L154.066 194.57C154.706 195.11 155.386 195.38 156.106 195.38C156.606 195.38 156.986 195.27 157.246 195.05C157.506 194.823 157.636 194.493 157.636 194.06C157.636 193.2 157.096 192.77 156.016 192.77H155.206V192.08H155.856C156.376 192.08 156.776 191.967 157.056 191.74C157.336 191.507 157.476 191.173 157.476 190.74C157.476 190.36 157.363 190.07 157.136 189.87C156.91 189.663 156.586 189.56 156.166 189.56C155.486 189.56 154.82 189.83 154.166 190.37L153.856 189.74C154.143 189.467 154.493 189.253 154.906 189.1C155.32 188.947 155.75 188.87 156.196 188.87C156.836 188.87 157.343 189.033 157.716 189.36C158.096 189.68 158.286 190.113 158.286 190.66C158.286 191.067 158.186 191.423 157.986 191.73C157.793 192.03 157.52 192.247 157.166 192.38Z" fill="#425073"/>
<path d="M189.198 195.31V196H184.658V195.38L187.128 192.66C187.461 192.287 187.701 191.953 187.848 191.66C188.001 191.36 188.078 191.06 188.078 190.76C188.078 190.373 187.964 190.077 187.738 189.87C187.511 189.663 187.191 189.56 186.778 189.56C186.098 189.56 185.431 189.83 184.778 190.37L184.468 189.74C184.748 189.473 185.098 189.263 185.518 189.11C185.944 188.95 186.371 188.87 186.798 188.87C187.444 188.87 187.954 189.037 188.328 189.37C188.708 189.703 188.898 190.153 188.898 190.72C188.898 191.127 188.804 191.517 188.618 191.89C188.438 192.263 188.138 192.68 187.718 193.14L185.718 195.31H189.198ZM192.804 196.08C191.997 196.08 191.384 195.773 190.964 195.16C190.544 194.547 190.334 193.653 190.334 192.48C190.334 191.3 190.544 190.403 190.964 189.79C191.384 189.177 191.997 188.87 192.804 188.87C193.61 188.87 194.224 189.177 194.644 189.79C195.064 190.397 195.274 191.29 195.274 192.47C195.274 193.65 195.064 194.547 194.644 195.16C194.224 195.773 193.61 196.08 192.804 196.08ZM192.804 195.39C193.364 195.39 193.777 195.153 194.044 194.68C194.31 194.207 194.444 193.47 194.444 192.47C194.444 191.463 194.31 190.73 194.044 190.27C193.784 189.803 193.37 189.57 192.804 189.57C192.244 189.57 191.83 189.803 191.564 190.27C191.297 190.737 191.164 191.47 191.164 192.47C191.164 193.47 191.297 194.207 191.564 194.68C191.83 195.153 192.244 195.39 192.804 195.39ZM201.19 195.31V196H196.65V195.38L199.12 192.66C199.453 192.287 199.693 191.953 199.84 191.66C199.993 191.36 200.07 191.06 200.07 190.76C200.07 190.373 199.956 190.077 199.73 189.87C199.503 189.663 199.183 189.56 198.77 189.56C198.09 189.56 197.423 189.83 196.77 190.37L196.46 189.74C196.74 189.473 197.09 189.263 197.51 189.11C197.936 188.95 198.363 188.87 198.79 188.87C199.436 188.87 199.946 189.037 200.32 189.37C200.7 189.703 200.89 190.153 200.89 190.72C200.89 191.127 200.796 191.517 200.61 191.89C200.43 192.263 200.13 192.68 199.71 193.14L197.71 195.31H201.19ZM207.436 194.47H206.376V196H205.566V194.47H202.306V193.85L205.706 188.95H206.376V193.79H207.436V194.47ZM205.566 193.79V190.32L203.156 193.79H205.566Z" fill="#425073"/>
<path d="M237.798 195.31V196H233.258V195.38L235.728 192.66C236.061 192.287 236.301 191.953 236.448 191.66C236.601 191.36 236.678 191.06 236.678 190.76C236.678 190.373 236.564 190.077 236.338 189.87C236.111 189.663 235.791 189.56 235.378 189.56C234.698 189.56 234.031 189.83 233.378 190.37L233.068 189.74C233.348 189.473 233.698 189.263 234.118 189.11C234.544 188.95 234.971 188.87 235.398 188.87C236.044 188.87 236.554 189.037 236.928 189.37C237.308 189.703 237.498 190.153 237.498 190.72C237.498 191.127 237.404 191.517 237.218 191.89C237.038 192.263 236.738 192.68 236.318 193.14L234.318 195.31H237.798ZM241.404 196.08C240.597 196.08 239.984 195.773 239.564 195.16C239.144 194.547 238.934 193.653 238.934 192.48C238.934 191.3 239.144 190.403 239.564 189.79C239.984 189.177 240.597 188.87 241.404 188.87C242.21 188.87 242.824 189.177 243.244 189.79C243.664 190.397 243.874 191.29 243.874 192.47C243.874 193.65 243.664 194.547 243.244 195.16C242.824 195.773 242.21 196.08 241.404 196.08ZM241.404 195.39C241.964 195.39 242.377 195.153 242.644 194.68C242.91 194.207 243.044 193.47 243.044 192.47C243.044 191.463 242.91 190.73 242.644 190.27C242.384 189.803 241.97 189.57 241.404 189.57C240.844 189.57 240.43 189.803 240.164 190.27C239.897 190.737 239.764 191.47 239.764 192.47C239.764 193.47 239.897 194.207 240.164 194.68C240.43 195.153 240.844 195.39 241.404 195.39ZM249.79 195.31V196H245.25V195.38L247.72 192.66C248.053 192.287 248.293 191.953 248.44 191.66C248.593 191.36 248.67 191.06 248.67 190.76C248.67 190.373 248.557 190.077 248.33 189.87C248.103 189.663 247.783 189.56 247.37 189.56C246.69 189.56 246.023 189.83 245.37 190.37L245.06 189.74C245.34 189.473 245.69 189.263 246.11 189.11C246.537 188.95 246.963 188.87 247.39 188.87C248.037 188.87 248.547 189.037 248.92 189.37C249.3 189.703 249.49 190.153 249.49 190.72C249.49 191.127 249.397 191.517 249.21 191.89C249.03 192.263 248.73 192.68 248.31 193.14L246.31 195.31H249.79ZM253.696 191.58C254.143 191.58 254.529 191.673 254.856 191.86C255.189 192.047 255.446 192.31 255.626 192.65C255.806 192.983 255.896 193.37 255.896 193.81C255.896 194.257 255.796 194.65 255.596 194.99C255.403 195.33 255.126 195.597 254.766 195.79C254.406 195.977 253.986 196.07 253.506 196.07C253.079 196.07 252.656 195.993 252.236 195.84C251.823 195.68 251.473 195.467 251.186 195.2L251.496 194.57C252.149 195.11 252.819 195.38 253.506 195.38C253.999 195.38 254.386 195.24 254.666 194.96C254.946 194.68 255.086 194.3 255.086 193.82C255.086 193.353 254.946 192.977 254.666 192.69C254.393 192.403 254.026 192.26 253.566 192.26C252.893 192.26 252.356 192.533 251.956 193.08H251.386V188.95H255.616V189.63H252.196V192.14C252.383 191.96 252.603 191.823 252.856 191.73C253.116 191.63 253.396 191.58 253.696 191.58Z" fill="#425073"/>
<path d="M286.403 195.31V196H281.863V195.38L284.333 192.66C284.666 192.287 284.906 191.953 285.053 191.66C285.206 191.36 285.283 191.06 285.283 190.76C285.283 190.373 285.169 190.077 284.943 189.87C284.716 189.663 284.396 189.56 283.983 189.56C283.303 189.56 282.636 189.83 281.983 190.37L281.673 189.74C281.953 189.473 282.303 189.263 282.723 189.11C283.149 188.95 283.576 188.87 284.003 188.87C284.649 188.87 285.159 189.037 285.533 189.37C285.913 189.703 286.103 190.153 286.103 190.72C286.103 191.127 286.009 191.517 285.823 191.89C285.643 192.263 285.343 192.68 284.923 193.14L282.923 195.31H286.403ZM290.009 196.08C289.202 196.08 288.589 195.773 288.169 195.16C287.749 194.547 287.539 193.653 287.539 192.48C287.539 191.3 287.749 190.403 288.169 189.79C288.589 189.177 289.202 188.87 290.009 188.87C290.815 188.87 291.429 189.177 291.849 189.79C292.269 190.397 292.479 191.29 292.479 192.47C292.479 193.65 292.269 194.547 291.849 195.16C291.429 195.773 290.815 196.08 290.009 196.08ZM290.009 195.39C290.569 195.39 290.982 195.153 291.249 194.68C291.515 194.207 291.649 193.47 291.649 192.47C291.649 191.463 291.515 190.73 291.249 190.27C290.989 189.803 290.575 189.57 290.009 189.57C289.449 189.57 289.035 189.803 288.769 190.27C288.502 190.737 288.369 191.47 288.369 192.47C288.369 193.47 288.502 194.207 288.769 194.68C289.035 195.153 289.449 195.39 290.009 195.39ZM298.395 195.31V196H293.855V195.38L296.325 192.66C296.658 192.287 296.898 191.953 297.045 191.66C297.198 191.36 297.275 191.06 297.275 190.76C297.275 190.373 297.162 190.077 296.935 189.87C296.708 189.663 296.388 189.56 295.975 189.56C295.295 189.56 294.628 189.83 293.975 190.37L293.665 189.74C293.945 189.473 294.295 189.263 294.715 189.11C295.142 188.95 295.568 188.87 295.995 188.87C296.642 188.87 297.152 189.037 297.525 189.37C297.905 189.703 298.095 190.153 298.095 190.72C298.095 191.127 298.002 191.517 297.815 191.89C297.635 192.263 297.335 192.68 296.915 193.14L294.915 195.31H298.395ZM302.301 191.57C302.728 191.57 303.108 191.663 303.441 191.85C303.774 192.037 304.034 192.3 304.221 192.64C304.408 192.98 304.501 193.37 304.501 193.81C304.501 194.243 304.404 194.633 304.211 194.98C304.018 195.327 303.748 195.597 303.401 195.79C303.054 195.983 302.664 196.08 302.231 196.08C301.378 196.08 300.718 195.783 300.251 195.19C299.791 194.597 299.561 193.75 299.561 192.65C299.561 191.857 299.668 191.177 299.881 190.61C300.101 190.043 300.414 189.613 300.821 189.32C301.228 189.02 301.714 188.87 302.281 188.87C302.688 188.87 303.084 188.947 303.471 189.1C303.858 189.247 304.198 189.46 304.491 189.74L304.181 190.37C303.848 190.09 303.528 189.887 303.221 189.76C302.921 189.627 302.614 189.56 302.301 189.56C301.694 189.56 301.221 189.83 300.881 190.37C300.548 190.903 300.381 191.66 300.381 192.64V192.79C300.534 192.417 300.781 192.12 301.121 191.9C301.461 191.68 301.854 191.57 302.301 191.57ZM302.191 195.39C302.644 195.39 303.008 195.247 303.281 194.96C303.554 194.673 303.691 194.293 303.691 193.82C303.691 193.353 303.551 192.977 303.271 192.69C302.998 192.403 302.634 192.26 302.181 192.26C301.721 192.26 301.344 192.407 301.051 192.7C300.764 192.987 300.621 193.36 300.621 193.82C300.621 194.287 300.764 194.667 301.051 194.96C301.344 195.247 301.724 195.39 302.191 195.39Z" fill="#425073"/>
<path d="M9.02176 14.38C9.43509 14.5067 9.75509 14.7233 9.98176 15.03C10.2151 15.3367 10.3318 15.7033 10.3318 16.13C10.3318 16.7367 10.1118 17.2133 9.67176 17.56C9.23176 17.9 8.60842 18.07 7.80176 18.07C6.99509 18.07 6.37176 17.9 5.93176 17.56C5.49176 17.2133 5.27176 16.7367 5.27176 16.13C5.27176 15.6967 5.38842 15.3267 5.62176 15.02C5.85509 14.7133 6.17842 14.5 6.59176 14.38C6.23842 14.2467 5.95842 14.0367 5.75176 13.75C5.54509 13.4633 5.44176 13.1267 5.44176 12.74C5.44176 12.1667 5.64842 11.7133 6.06176 11.38C6.48176 11.04 7.06176 10.87 7.80176 10.87C8.54176 10.87 9.11842 11.04 9.53176 11.38C9.95176 11.7133 10.1618 12.1667 10.1618 12.74C10.1618 13.1267 10.0584 13.4667 9.85176 13.76C9.64509 14.0467 9.36842 14.2533 9.02176 14.38ZM6.25176 12.8C6.25176 13.2133 6.38176 13.53 6.64176 13.75C6.90842 13.97 7.29509 14.08 7.80176 14.08C8.30842 14.08 8.69176 13.97 8.95176 13.75C9.21842 13.53 9.35176 13.2133 9.35176 12.8C9.35176 12.4067 9.21842 12.1 8.95176 11.88C8.69176 11.66 8.30842 11.55 7.80176 11.55C7.29509 11.55 6.90842 11.66 6.64176 11.88C6.38176 12.1 6.25176 12.4067 6.25176 12.8ZM7.80176 17.39C8.94842 17.39 9.52176 16.9533 9.52176 16.08C9.52176 15.2067 8.94842 14.77 7.80176 14.77C6.65509 14.77 6.08176 15.2067 6.08176 16.08C6.08176 16.9533 6.65509 17.39 7.80176 17.39ZM13.7979 18.08C12.9912 18.08 12.3779 17.7733 11.9579 17.16C11.5379 16.5467 11.3279 15.6533 11.3279 14.48C11.3279 13.3 11.5379 12.4033 11.9579 11.79C12.3779 11.1767 12.9912 10.87 13.7979 10.87C14.6045 10.87 15.2179 11.1767 15.6379 11.79C16.0579 12.3967 16.2679 13.29 16.2679 14.47C16.2679 15.65 16.0579 16.5467 15.6379 17.16C15.2179 17.7733 14.6045 18.08 13.7979 18.08ZM13.7979 17.39C14.3579 17.39 14.7712 17.1533 15.0379 16.68C15.3045 16.2067 15.4379 15.47 15.4379 14.47C15.4379 13.4633 15.3045 12.73 15.0379 12.27C14.7779 11.8033 14.3645 11.57 13.7979 11.57C13.2379 11.57 12.8245 11.8033 12.5579 12.27C12.2912 12.7367 12.1579 13.47 12.1579 14.47C12.1579 15.47 12.2912 16.2067 12.5579 16.68C12.8245 17.1533 13.2379 17.39 13.7979 17.39ZM24.3239 10.95V18H23.5739L23.5839 12.54L21.2939 16.88H20.7139L18.4139 12.58L18.4239 18H17.6639V10.95H18.3439L21.0139 16.06L23.6539 10.95H24.3239ZM28.9721 17.38C29.2788 17.38 29.5821 17.31 29.8821 17.17C30.1821 17.03 30.4655 16.8267 30.7321 16.56L31.0421 17.19C30.7888 17.4567 30.4688 17.6733 30.0821 17.84C29.7021 18 29.3255 18.08 28.9521 18.08C28.2655 18.08 27.7021 17.86 27.2621 17.42C26.8288 16.9733 26.5488 16.34 26.4221 15.52H25.3721V14.93H26.3521C26.3455 14.83 26.3421 14.6767 26.3421 14.47C26.3421 14.2633 26.3455 14.11 26.3521 14.01H25.3721V13.42H26.4221C26.5555 12.6 26.8388 11.97 27.2721 11.53C27.7055 11.09 28.2655 10.87 28.9521 10.87C29.3521 10.87 29.7321 10.9467 30.0921 11.1C30.4588 11.2533 30.7755 11.4733 31.0421 11.76L30.7321 12.39C30.4655 12.1233 30.1821 11.92 29.8821 11.78C29.5821 11.64 29.2788 11.57 28.9721 11.57C28.0121 11.57 27.4321 12.1867 27.2321 13.42H28.9721V14.01H27.1721C27.1655 14.11 27.1621 14.2633 27.1621 14.47C27.1621 14.6767 27.1655 14.83 27.1721 14.93H28.9721V15.52H27.2321C27.4188 16.76 27.9988 17.38 28.9721 17.38Z" fill="#425073"/>
<path d="M8.10664 51.57C8.53331 51.57 8.91331 51.6633 9.24664 51.85C9.57997 52.0367 9.83997 52.3 10.0266 52.64C10.2133 52.98 10.3066 53.37 10.3066 53.81C10.3066 54.2433 10.21 54.6333 10.0166 54.98C9.82331 55.3267 9.55331 55.5967 9.20664 55.79C8.85997 55.9833 8.46997 56.08 8.03664 56.08C7.18331 56.08 6.52331 55.7833 6.05664 55.19C5.59664 54.5967 5.36664 53.75 5.36664 52.65C5.36664 51.8567 5.47331 51.1767 5.68664 50.61C5.90664 50.0433 6.21997 49.6133 6.62664 49.32C7.03331 49.02 7.51997 48.87 8.08664 48.87C8.49331 48.87 8.88997 48.9467 9.27664 49.1C9.66331 49.2467 10.0033 49.46 10.2966 49.74L9.98664 50.37C9.65331 50.09 9.33331 49.8867 9.02664 49.76C8.72664 49.6267 8.41997 49.56 8.10664 49.56C7.49997 49.56 7.02664 49.83 6.68664 50.37C6.35331 50.9033 6.18664 51.66 6.18664 52.64V52.79C6.33997 52.4167 6.58664 52.12 6.92664 51.9C7.26664 51.68 7.65997 51.57 8.10664 51.57ZM7.99664 55.39C8.44997 55.39 8.81331 55.2467 9.08664 54.96C9.35997 54.6733 9.49664 54.2933 9.49664 53.82C9.49664 53.3533 9.35664 52.9767 9.07664 52.69C8.80331 52.4033 8.43997 52.26 7.98664 52.26C7.52664 52.26 7.14997 52.4067 6.85664 52.7C6.56997 52.9867 6.42664 53.36 6.42664 53.82C6.42664 54.2867 6.56997 54.6667 6.85664 54.96C7.14997 55.2467 7.52997 55.39 7.99664 55.39ZM13.793 56.08C12.9863 56.08 12.373 55.7733 11.953 55.16C11.533 54.5467 11.323 53.6533 11.323 52.48C11.323 51.3 11.533 50.4033 11.953 49.79C12.373 49.1767 12.9863 48.87 13.793 48.87C14.5996 48.87 15.213 49.1767 15.633 49.79C16.053 50.3967 16.263 51.29 16.263 52.47C16.263 53.65 16.053 54.5467 15.633 55.16C15.213 55.7733 14.5996 56.08 13.793 56.08ZM13.793 55.39C14.353 55.39 14.7663 55.1533 15.033 54.68C15.2996 54.2067 15.433 53.47 15.433 52.47C15.433 51.4633 15.2996 50.73 15.033 50.27C14.773 49.8033 14.3596 49.57 13.793 49.57C13.233 49.57 12.8196 49.8033 12.553 50.27C12.2863 50.7367 12.153 51.47 12.153 52.47C12.153 53.47 12.2863 54.2067 12.553 54.68C12.8196 55.1533 13.233 55.39 13.793 55.39ZM24.3191 48.95V56H23.5691L23.5791 50.54L21.2891 54.88H20.7091L18.4091 50.58L18.4191 56H17.6591V48.95H18.3391L21.0091 54.06L23.6491 48.95H24.3191ZM28.9673 55.38C29.2739 55.38 29.5773 55.31 29.8773 55.17C30.1773 55.03 30.4606 54.8267 30.7273 54.56L31.0373 55.19C30.7839 55.4567 30.4639 55.6733 30.0773 55.84C29.6973 56 29.3206 56.08 28.9473 56.08C28.2606 56.08 27.6973 55.86 27.2573 55.42C26.8239 54.9733 26.5439 54.34 26.4173 53.52H25.3673V52.93H26.3473C26.3406 52.83 26.3373 52.6767 26.3373 52.47C26.3373 52.2633 26.3406 52.11 26.3473 52.01H25.3673V51.42H26.4173C26.5506 50.6 26.8339 49.97 27.2673 49.53C27.7006 49.09 28.2606 48.87 28.9473 48.87C29.3473 48.87 29.7273 48.9467 30.0873 49.1C30.4539 49.2533 30.7706 49.4733 31.0373 49.76L30.7273 50.39C30.4606 50.1233 30.1773 49.92 29.8773 49.78C29.5773 49.64 29.2739 49.57 28.9673 49.57C28.0073 49.57 27.4273 50.1867 27.2273 51.42H28.9673V52.01H27.1673C27.1606 52.11 27.1573 52.2633 27.1573 52.47C27.1573 52.6767 27.1606 52.83 27.1673 52.93H28.9673V53.52H27.2273C27.4139 54.76 27.9939 55.38 28.9673 55.38Z" fill="#425073"/>
<path d="M10.4418 92.47H9.38176V94H8.57176V92.47H5.31176V91.85L8.71176 86.95H9.38176V91.79H10.4418V92.47ZM8.57176 91.79V88.32L6.16176 91.79H8.57176ZM13.7979 94.08C12.9912 94.08 12.3779 93.7733 11.9579 93.16C11.5379 92.5467 11.3279 91.6533 11.3279 90.48C11.3279 89.3 11.5379 88.4033 11.9579 87.79C12.3779 87.1767 12.9912 86.87 13.7979 86.87C14.6045 86.87 15.2179 87.1767 15.6379 87.79C16.0579 88.3967 16.2679 89.29 16.2679 90.47C16.2679 91.65 16.0579 92.5467 15.6379 93.16C15.2179 93.7733 14.6045 94.08 13.7979 94.08ZM13.7979 93.39C14.3579 93.39 14.7712 93.1533 15.0379 92.68C15.3045 92.2067 15.4379 91.47 15.4379 90.47C15.4379 89.4633 15.3045 88.73 15.0379 88.27C14.7779 87.8033 14.3645 87.57 13.7979 87.57C13.2379 87.57 12.8245 87.8033 12.5579 88.27C12.2912 88.7367 12.1579 89.47 12.1579 90.47C12.1579 91.47 12.2912 92.2067 12.5579 92.68C12.8245 93.1533 13.2379 93.39 13.7979 93.39ZM24.3239 86.95V94H23.5739L23.5839 88.54L21.2939 92.88H20.7139L18.4139 88.58L18.4239 94H17.6639V86.95H18.3439L21.0139 92.06L23.6539 86.95H24.3239ZM28.9721 93.38C29.2788 93.38 29.5821 93.31 29.8821 93.17C30.1821 93.03 30.4655 92.8267 30.7321 92.56L31.0421 93.19C30.7888 93.4567 30.4688 93.6733 30.0821 93.84C29.7021 94 29.3255 94.08 28.9521 94.08C28.2655 94.08 27.7021 93.86 27.2621 93.42C26.8288 92.9733 26.5488 92.34 26.4221 91.52H25.3721V90.93H26.3521C26.3455 90.83 26.3421 90.6767 26.3421 90.47C26.3421 90.2633 26.3455 90.11 26.3521 90.01H25.3721V89.42H26.4221C26.5555 88.6 26.8388 87.97 27.2721 87.53C27.7055 87.09 28.2655 86.87 28.9521 86.87C29.3521 86.87 29.7321 86.9467 30.0921 87.1C30.4588 87.2533 30.7755 87.4733 31.0421 87.76L30.7321 88.39C30.4655 88.1233 30.1821 87.92 29.8821 87.78C29.5821 87.64 29.2788 87.57 28.9721 87.57C28.0121 87.57 27.4321 88.1867 27.2321 89.42H28.9721V90.01H27.1721C27.1655 90.11 27.1621 90.2633 27.1621 90.47C27.1621 90.6767 27.1655 90.83 27.1721 90.93H28.9721V91.52H27.2321C27.4188 92.76 27.9988 93.38 28.9721 93.38Z" fill="#425073"/>
<path d="M10.1918 131.31V132H5.65176V131.38L8.12176 128.66C8.45509 128.287 8.69509 127.953 8.84176 127.66C8.99509 127.36 9.07176 127.06 9.07176 126.76C9.07176 126.373 8.95842 126.077 8.73176 125.87C8.50509 125.663 8.18509 125.56 7.77176 125.56C7.09176 125.56 6.42509 125.83 5.77176 126.37L5.46176 125.74C5.74176 125.473 6.09176 125.263 6.51176 125.11C6.93842 124.95 7.36509 124.87 7.79176 124.87C8.43842 124.87 8.94842 125.037 9.32176 125.37C9.70176 125.703 9.89176 126.153 9.89176 126.72C9.89176 127.127 9.79842 127.517 9.61176 127.89C9.43176 128.263 9.13176 128.68 8.71176 129.14L6.71176 131.31H10.1918ZM13.7979 132.08C12.9912 132.08 12.3779 131.773 11.9579 131.16C11.5379 130.547 11.3279 129.653 11.3279 128.48C11.3279 127.3 11.5379 126.403 11.9579 125.79C12.3779 125.177 12.9912 124.87 13.7979 124.87C14.6045 124.87 15.2179 125.177 15.6379 125.79C16.0579 126.397 16.2679 127.29 16.2679 128.47C16.2679 129.65 16.0579 130.547 15.6379 131.16C15.2179 131.773 14.6045 132.08 13.7979 132.08ZM13.7979 131.39C14.3579 131.39 14.7712 131.153 15.0379 130.68C15.3045 130.207 15.4379 129.47 15.4379 128.47C15.4379 127.463 15.3045 126.73 15.0379 126.27C14.7779 125.803 14.3645 125.57 13.7979 125.57C13.2379 125.57 12.8245 125.803 12.5579 126.27C12.2912 126.737 12.1579 127.47 12.1579 128.47C12.1579 129.47 12.2912 130.207 12.5579 130.68C12.8245 131.153 13.2379 131.39 13.7979 131.39ZM24.3239 124.95V132H23.5739L23.5839 126.54L21.2939 130.88H20.7139L18.4139 126.58L18.4239 132H17.6639V124.95H18.3439L21.0139 130.06L23.6539 124.95H24.3239ZM28.9721 131.38C29.2788 131.38 29.5821 131.31 29.8821 131.17C30.1821 131.03 30.4655 130.827 30.7321 130.56L31.0421 131.19C30.7888 131.457 30.4688 131.673 30.0821 131.84C29.7021 132 29.3255 132.08 28.9521 132.08C28.2655 132.08 27.7021 131.86 27.2621 131.42C26.8288 130.973 26.5488 130.34 26.4221 129.52H25.3721V128.93H26.3521C26.3455 128.83 26.3421 128.677 26.3421 128.47C26.3421 128.263 26.3455 128.11 26.3521 128.01H25.3721V127.42H26.4221C26.5555 126.6 26.8388 125.97 27.2721 125.53C27.7055 125.09 28.2655 124.87 28.9521 124.87C29.3521 124.87 29.7321 124.947 30.0921 125.1C30.4588 125.253 30.7755 125.473 31.0421 125.76L30.7321 126.39C30.4655 126.123 30.1821 125.92 29.8821 125.78C29.5821 125.64 29.2788 125.57 28.9721 125.57C28.0121 125.57 27.4321 126.187 27.2321 127.42H28.9721V128.01H27.1721C27.1655 128.11 27.1621 128.263 27.1621 128.47C27.1621 128.677 27.1655 128.83 27.1721 128.93H28.9721V129.52H27.2321C27.4188 130.76 27.9988 131.38 28.9721 131.38Z" fill="#425073"/>
<path d="M18.002 170.08C17.1953 170.08 16.582 169.773 16.162 169.16C15.742 168.547 15.532 167.653 15.532 166.48C15.532 165.3 15.742 164.403 16.162 163.79C16.582 163.177 17.1953 162.87 18.002 162.87C18.8086 162.87 19.422 163.177 19.842 163.79C20.262 164.397 20.472 165.29 20.472 166.47C20.472 167.65 20.262 168.547 19.842 169.16C19.422 169.773 18.8086 170.08 18.002 170.08ZM18.002 169.39C18.562 169.39 18.9753 169.153 19.242 168.68C19.5086 168.207 19.642 167.47 19.642 166.47C19.642 165.463 19.5086 164.73 19.242 164.27C18.982 163.803 18.5686 163.57 18.002 163.57C17.442 163.57 17.0286 163.803 16.762 164.27C16.4953 164.737 16.362 165.47 16.362 166.47C16.362 167.47 16.4953 168.207 16.762 168.68C17.0286 169.153 17.442 169.39 18.002 169.39Z" fill="#425073"/>
<line x1="178.25" y1="173.75" x2="178.25" y2="8.25" stroke="#ADB6CD" stroke-width="0.5" stroke-linecap="round"/>
<line x1="44" y1="14.75" x2="307" y2="14.75" stroke="#EFF2F9" stroke-width="0.5"/>
<line x1="44" y1="52.75" x2="307" y2="52.75" stroke="#EFF2F9" stroke-width="0.5"/>
<line x1="44" y1="90.75" x2="307" y2="90.75" stroke="#EFF2F9" stroke-width="0.5"/>
<line x1="44" y1="128.75" x2="307" y2="128.75" stroke="#EFF2F9" stroke-width="0.5"/>
<line x1="44" y1="166.75" x2="307" y2="166.75" stroke="#EFF2F9" stroke-width="0.5"/>
<path d="M44 144L97.0143 128.292C97.383 128.183 97.5673 128.128 97.7447 128.057C97.9023 127.993 98.0557 127.919 98.2039 127.836C98.3708 127.743 98.5287 127.633 98.8447 127.414L146.018 94.6811C146.385 94.4265 146.568 94.2992 146.764 94.1937C146.937 94.1 147.117 94.0191 147.302 93.9519C147.51 93.8763 147.728 93.8237 148.162 93.7186C159.552 90.963 166.287 89.3338 178 86.5" stroke="#427AEF" stroke-width="2" stroke-linecap="round"/>
<path d="M306 9L293 17.5L244.585 58.0105C244.366 58.1938 244.256 58.2855 244.141 58.3689C244.038 58.443 243.932 58.5121 243.823 58.5762C243.7 58.6483 243.572 58.7116 243.316 58.8383L196.176 82.165C195.923 82.2904 195.796 82.3531 195.666 82.4065C195.55 82.454 195.432 82.4961 195.312 82.5325C195.178 82.5735 195.04 82.605 194.764 82.668L178 86.5" stroke="#427AEF" stroke-width="1.5" stroke-linecap="round" stroke-dasharray="2 6"/>
<path d="M44 164L98.2007 161.831L147.383 154.419L179 152" stroke="#F8BE8C" stroke-width="2" stroke-linecap="round"/>
<path d="M306 140L293.051 142.48L244.243 148.052L195.933 150.795L179 152" stroke="#F8BE8C" stroke-width="1.5" stroke-linecap="round" stroke-dasharray="2 6"/>
</svg>
